<?xml version="1.0" encoding="UTF-8"?>
<svg version="1.1" xmlns="http://www.w3.org/2000/svg" width="512" height="512">
<path d="M0 0 C2.88784257 2.59394708 4.86550014 5.77759377 7 9 C17.81508814 24.52595475 30.57292008 36.54144738 46.45043945 46.79589844 C49.24501195 48.96744902 49.9802544 50.88372037 50.5625 54.3125 C49.87382025 58.82717834 48.75994091 59.74066238 45.2578125 62.40625 C44.51273437 62.9321875 43.76765625 63.458125 43 64 C41.1874119 65.31237833 39.3749173 66.6248858 37.5625 67.9375 C36.62921875 68.60652344 35.6959375 69.27554688 34.734375 69.96484375 C30.96532925 72.77009066 27.46105852 75.8265366 24 79 C25.74275384 84.03574802 28.50108118 88.40467545 31.25 92.9375 C31.77940186 93.8150293 32.30880371 94.69255859 32.85424805 95.59667969 C37.89105836 103.90194112 43.10904563 112.08819607 48.34375 120.26953125 C54.64613813 130.12724385 60.83375671 140.0567286 67 150 C67.48968262 150.78648926 67.97936523 151.57297852 68.48388672 152.38330078 C69.74729237 154.41739753 71.00081303 156.45714968 72.25 158.5 C72.91515625 159.5828125 73.5803125 160.665625 74.265625 161.78125 C77.88366064 168.49580264 79.54367417 174.16713661 79.4375 181.8125 C79.42775146 182.60148682 79.41800293 183.39047363 79.40795898 184.20336914 C79.03310043 196.60419833 74.12522012 203.90571694 66 213 C65.10236561 214.11626351 64.20924775 215.23617162 63.3203125 216.359375 C56.46106519 224.77437824 56.46106519 224.77437824 52.39453125 225.40234375 C50.73749518 225.21994133 49.08324472 225.00972043 47.43359375 224.76953125 C43.72412134 225.1208296 42.38135776 227.10611092 39.9375 229.8125 C37.64631817 232.60299035 36.14298314 234.57105058 35 238 C35.33 238.66 35.66 239.32 36 240 C36.3680314 243.53310143 36.34610722 245.4276263 34.48828125 248.5 C33.77027344 249.325 33.05226563 250.15 32.3125 251 C31.49652344 251.94488281 30.68054688 252.88976562 29.83984375 253.86328125 C25.62173337 258.55591028 21.32649341 263.17735485 17.0078125 267.77734375 C14.1577443 270.81794331 11.39511189 273.92348424 8.671875 277.078125 C6.64241927 279.41105074 4.572353 281.70511245 2.5 284 C-0.18983431 286.98062721 -2.86310364 289.97245233 -5.5 293 C-8.89253093 296.89512811 -12.35194201 300.72782763 -15.8125 304.5625 C-17.72554149 306.69417481 -19.61887612 308.8401911 -21.5 311 C-24.89253093 314.89512811 -28.35194201 318.72782763 -31.8125 322.5625 C-33.72554149 324.69417481 -35.61887612 326.8401911 -37.5 329 C-40.89253093 332.89512811 -44.35194201 336.72782763 -47.8125 340.5625 C-49.72554149 342.69417481 -51.61887612 344.8401911 -53.5 347 C-56.89253093 350.89512811 -60.35194201 354.72782763 -63.8125 358.5625 C-65.72554149 360.69417481 -67.61887612 362.8401911 -69.5 365 C-72.89253093 368.89512811 -76.35194201 372.72782763 -79.8125 376.5625 C-81.72554149 378.69417481 -83.61887612 380.8401911 -85.5 383 C-88.89253093 386.89512811 -92.35194201 390.72782763 -95.8125 394.5625 C-97.72554149 396.69417481 -99.61887612 398.8401911 -101.5 401 C-104.89253093 404.89512811 -108.35194201 408.72782763 -111.8125 412.5625 C-113.72554149 414.69417481 -115.61887612 416.8401911 -117.5 419 C-120.89253093 422.89512811 -124.35194201 426.72782763 -127.8125 430.5625 C-129.72554149 432.69417481 -131.61887612 434.8401911 -133.5 437 C-136.88945649 440.89159819 -140.34272187 444.72327353 -143.80859375 448.546875 C-145.77348226 450.74642934 -147.66870655 452.98952673 -149.5625 455.25 C-155.89337169 462.47069467 -162.98314389 467.48698385 -172.7109375 468.31640625 C-183.63912593 468.7783623 -191.58293882 467.20796461 -200 459.9375 C-205.28852237 454.88974239 -210.17879173 449.49127451 -215 444 C-215.61617187 443.29875 -216.23234375 442.5975 -216.8671875 441.875 C-217.98779883 440.59430134 -219.1063282 439.31177767 -220.22265625 438.02734375 C-222.29359487 435.66510827 -224.39512848 433.33204147 -226.5 431 C-229.7658146 427.38112436 -232.99305031 423.73316615 -236.19140625 420.0546875 C-238.24664777 417.71979109 -240.34243033 415.42420466 -242.4375 413.125 C-245.51902734 409.6946205 -248.55352565 406.23486537 -251.5 402.6875 C-252.1496875 401.90761719 -252.799375 401.12773437 -253.46875 400.32421875 C-255.1390546 397.78893499 -255.71880043 396.00932872 -256 393 C-255.0625 390.1875 -255.0625 390.1875 -254 388 C-254.44730469 387.56429688 -254.89460937 387.12859375 -255.35546875 386.6796875 C-255.96003906 386.08414062 -256.56460938 385.48859375 -257.1875 384.875 C-257.83332031 384.24207031 -258.47914063 383.60914063 -259.14453125 382.95703125 C-260.78243017 381.22947891 -262.04219037 379.52196399 -263.375 377.5625 C-265.64657906 374.80640849 -265.64657906 374.80640849 -268.1328125 374.8046875 C-269.71139366 374.89325476 -271.28955676 374.98961596 -272.8671875 375.09375 C-275 375 -275 375 -277.625 372.9375 C-278.800625 371.4834375 -278.800625 371.4834375 -280 370 C-281.11463201 368.88536799 -282.24046868 367.78187092 -283.375 366.6875 C-286.43331869 363.62918131 -289.29279522 360.44198402 -292.1171875 357.16796875 C-294.2157532 354.75157049 -296.354397 352.37470976 -298.5 350 C-301.76390848 346.38323655 -304.98790949 342.73610392 -308.1875 339.0625 C-310.27211164 336.69035571 -312.38428644 334.34443935 -314.5 332 C-317.76390848 328.38323655 -320.98790949 324.73610392 -324.1875 321.0625 C-326.27211164 318.69035571 -328.38428644 316.34443935 -330.5 314 C-333.76390848 310.38323655 -336.98790949 306.73610392 -340.1875 303.0625 C-342.27211164 300.69035571 -344.38428644 298.34443935 -346.5 296 C-349.76390848 292.38323655 -352.98790949 288.73610392 -356.1875 285.0625 C-358.27211164 282.69035571 -360.38428644 280.34443935 -362.5 278 C-365.76390848 274.38323655 -368.98790949 270.73610392 -372.1875 267.0625 C-374.27211164 264.69035571 -376.38428644 262.34443935 -378.5 260 C-381.76390848 256.38323655 -384.98790949 252.73610392 -388.1875 249.0625 C-390.27211164 246.69035571 -392.38428644 244.34443935 -394.5 242 C-397.76390848 238.38323655 -400.98790949 234.73610392 -404.1875 231.0625 C-406.27211164 228.69035571 -408.38428644 226.34443935 -410.5 224 C-424.63530348 208.30477339 -434.29865715 197.16071367 -433.20019531 175.18701172 C-432.17701312 164.00937015 -423.68740642 153.86057015 -417.74169922 144.70263672 C-414.67154139 139.9385987 -411.68390315 135.12313161 -408.6875 130.3125 C-407.41811877 128.27985422 -406.14858601 126.24730306 -404.87890625 124.21484375 C-402.26041045 120.02034618 -399.64359453 115.82480439 -397.02734375 111.62890625 C-396.37805908 110.58863281 -395.72877441 109.54835938 -395.05981445 108.4765625 C-393.78443742 106.4320969 -392.5107953 104.38654785 -391.23901367 102.33984375 C-388.55900913 98.03749532 -385.86471969 93.75660271 -383.0234375 89.55859375 C-382.59015137 88.91293457 -382.15686523 88.26727539 -381.71044922 87.60205078 C-380.60092491 85.96170928 -379.47321518 84.33370664 -378.34375 82.70703125 C-376.80446892 80.11588988 -376.80446892 80.11588988 -377.015625 77.40234375 C-380.19366882 69.64640348 -389.96982114 64.42223349 -396.79589844 59.91894531 C-400.90352323 57.19295354 -400.90352323 57.19295354 -402 55 C-402.92936572 50.09970802 -402.92936572 50.09970802 -402 47 C-399.04063998 43.8171781 -395.5631646 41.46527074 -392 39 C-381.87920628 31.50187043 -374.01696839 23.47063252 -367 13 C-363.36065574 8.18032787 -363.36065574 8.18032787 -361 7 C-357.56818534 6.61868726 -355.59587023 6.66386808 -352.5625 8.375 C-349.5754459 11.43490907 -347.34630411 14.7467126 -344.94921875 18.27734375 C-337.36578797 28.86983123 -327.87636529 36.87595235 -317.22265625 44.203125 C-315 46 -315 46 -314 49 C-312.741875 49.103125 -311.48375 49.20625 -310.1875 49.3125 C-307.59871411 49.64181552 -306.24425336 49.83453804 -304.0625 51.3125 C-303 53 -303 53 -302 57 C-295.73 57 -289.46 57 -283 57 C-282.67 55.35 -282.34 53.7 -282 52 C-277.19820927 48.56398165 -272.70754228 48.58450471 -267.0451355 48.65510559 C-266.15417777 48.65410329 -265.26322005 48.65310099 -264.3452636 48.65206832 C-261.36522595 48.65214872 -258.38571907 48.6734904 -255.40576172 48.69458008 C-253.2667411 48.69866148 -251.12771734 48.70131118 -248.98869324 48.70263672 C-244.38390069 48.70785177 -239.77924597 48.72181802 -235.1744957 48.742136 C-227.88681368 48.77283104 -220.59929034 48.77546094 -213.31155396 48.77262878 C-192.58845544 48.76831184 -171.86555061 48.79167494 -151.14257812 48.8659668 C-139.69604674 48.90676316 -128.24984911 48.91891243 -116.80325711 48.89972991 C-109.56552565 48.88918926 -102.32903839 48.91364477 -95.0914886 48.96410239 C-90.57729484 48.98706895 -86.06363658 48.97640407 -81.54944801 48.95638275 C-79.46457951 48.95376577 -77.37964034 48.96471712 -75.29493141 48.99064445 C-62.77498608 49.13754071 -54.69318057 48.64264131 -45 40 C-43.79294353 39.07475083 -42.58368292 38.15236131 -41.37109375 37.234375 C-30.46317877 27.99677989 -21.39470241 18.13240958 -13.52685547 6.16723633 C-9.93532492 0.71578216 -6.79935575 -1.86113752 0 0 Z " fill="#000102" transform="translate(433,44)"/>
<path d="M0 0 C56.1 0 112.2 0 170 0 C167.75 10.125 167.75 10.125 166.47327995 13.94930363 C166.18365942 14.82413837 165.89403888 15.69897312 165.59564197 16.60031801 C165.28240989 17.53127572 164.96917782 18.46223343 164.64645386 19.42140198 C164.30989371 20.43364568 163.97333357 21.44588939 163.62657464 22.48880714 C162.50385145 25.86189668 161.37473183 29.23280878 160.24560547 32.60375977 C159.43705222 35.02857286 158.62889583 37.45351831 157.82110596 39.87858582 C156.08423624 45.08987693 154.34462246 50.3002389 152.60247421 55.50976753 C150.0836646 63.04175489 147.56986135 70.57540558 145.05725409 78.10946392 C140.98000613 90.3346514 136.89874514 102.55849519 132.81494141 114.78149414 C128.84928371 126.65090568 124.88552797 138.52094957 120.92431641 150.3918457 C120.55770412 151.4905003 120.55770412 151.4905003 120.18368553 152.61134995 C118.95750194 156.28598542 117.73135561 159.96063332 116.5052278 163.6352874 C106.3425931 194.09212083 96.17343771 224.5467733 86 255 C85.34 255 84.68 255 84 255 C73.29363099 222.94951107 62.59198208 190.89745059 51.8966893 158.84326388 C50.63493645 155.0617576 49.3731444 151.28026441 48.11132812 147.4987793 C47.86011648 146.74593131 47.60890484 145.99308331 47.35008073 145.21742175 C43.27867664 133.01627492 39.20409541 120.81619136 35.12834573 108.61649557 C30.94849393 96.1049627 26.77204295 83.59229843 22.59876823 71.07857019 C20.02208308 63.35263771 17.44272722 55.62760741 14.85998297 47.9036983 C12.88214716 41.98787503 10.90903733 36.0704856 8.93772125 30.1524868 C8.12657291 27.71987035 7.31387004 25.28777165 6.49953461 22.85622025 C5.39187319 19.54806195 4.28971114 16.23812251 3.18896484 12.92765808 C2.86212519 11.95587763 2.53528553 10.98409719 2.19854164 9.98286885 C1.7596338 8.6571856 1.7596338 8.6571856 1.31185913 7.30472088 C1.05668707 6.54034385 0.80151501 5.77596683 0.53861046 4.98842686 C0 3 0 3 0 0 Z " fill="#61DAFA" transform="translate(171,237)"/>
<path d="M0 0 C45.21 0 90.42 0 137 0 C153.13610553 47.25573762 153.13610553 47.25573762 158.84741211 64.34936523 C159.52095336 66.36202405 160.19458666 68.37465206 160.86830139 70.38725281 C163.00667263 76.77702396 165.1422489 83.1677272 167.27734375 89.55859375 C167.64439903 90.6571108 168.0114543 91.75562785 168.38963246 92.88743329 C171.86126245 103.27733116 175.33196891 113.66753695 178.79994869 124.05865383 C183.19521384 137.22806294 187.59567723 150.39571059 192.00290483 163.5611214 C195.13023179 172.9045363 198.25188044 182.2498362 201.36923224 191.5965839 C203.22255124 197.15288858 205.07837255 202.70832786 206.94032097 208.26174736 C208.67802261 213.44498481 210.40872928 218.63050323 212.13391685 223.81791878 C212.76867747 225.72242269 213.40602928 227.62606512 214.04609299 229.52879333 C214.91527066 232.1138761 215.77527422 234.70182881 216.63291931 237.29075623 C216.89086696 238.05071709 217.14881461 238.81067795 217.41457886 239.59366792 C219.11413053 244.77173895 219.11413053 244.77173895 218 247 C203.79287772 231.8740973 203.79287772 231.8740973 198.63671875 225.88671875 C196.62126228 223.56341213 194.56151538 221.28251535 192.5 219 C189.81016569 216.01937279 187.13689636 213.02754767 184.5 210 C177.91900092 202.34322798 177.91900092 202.34322798 171 195 C169.4573562 195.11229974 167.91582349 195.24000338 166.375 195.375 C163.28275483 195.41028953 161.56059378 195.36872708 158.95703125 193.65625 C157.16952791 191.85690888 155.5909955 189.97363999 154 188 C153.48050781 187.53335938 152.96101562 187.06671875 152.42578125 186.5859375 C151 185.25 151 185.25 149 182 C149.26953125 179.56640625 149.26953125 179.56640625 149.8125 176.8125 C150.39460591 172.88195003 150.32703421 171.49628285 148.10546875 168.125 C145.49443973 165.30649791 142.7861759 162.64464302 140 160 C138.79349974 158.66273386 137.60349265 157.31022894 136.4375 155.9375 C133.82298058 152.92926472 131.17048344 149.95869751 128.5 147 C125.23609152 143.38323655 122.01209051 139.73610392 118.8125 136.0625 C116.72788836 133.69035571 114.61571356 131.34443935 112.5 129 C109.23609152 125.38323655 106.01209051 121.73610392 102.8125 118.0625 C100.72788836 115.69035571 98.61571356 113.34443935 96.5 111 C93.23609152 107.38323655 90.01209051 103.73610392 86.8125 100.0625 C84.72788836 97.69035571 82.61571356 95.34443935 80.5 93 C77.23609152 89.38323655 74.01209051 85.73610392 70.8125 82.0625 C68.72788836 79.69035571 66.61571356 77.34443935 64.5 75 C61.23609152 71.38323655 58.01209051 67.73610392 54.8125 64.0625 C52.72788836 61.69035571 50.61571356 59.34443935 48.5 57 C45.23609152 53.38323655 42.01209051 49.73610392 38.8125 46.0625 C36.72788836 43.69035571 34.61571356 41.34443935 32.5 39 C29.23609152 35.38323655 26.01209051 31.73610392 22.8125 28.0625 C20.72788836 25.69035571 18.61571356 23.34443935 16.5 21 C14.99957711 19.33371403 13.49955926 17.66706322 12 16 C11.35546875 15.28457031 10.7109375 14.56914062 10.046875 13.83203125 C0 2.54021739 0 2.54021739 0 0 Z " fill="#00CEF9" transform="translate(18,237)"/>
<path d="M0 0 C45.21 0 90.42 0 137 0 C132.54230236 7.80097087 132.54230236 7.80097087 129.625 10.4375 C127.08390285 12.8798072 124.7549772 15.36237506 122.5625 18.125 C122.06878906 18.74632812 121.57507813 19.36765625 121.06640625 20.0078125 C119.70265032 22.55548842 119.67508348 24.14251501 120 27 C120.91568906 29.25132517 120.91568906 29.25132517 122 31 C120.39676273 32.77168246 118.79244861 34.54236892 117.1875 36.3125 C116.50977539 37.06176758 116.50977539 37.06176758 115.81835938 37.82617188 C113.59780179 40.27364776 111.36844075 42.69450785 109 45 C108.34 44.67 107.68 44.34 107 44 C103.6716248 43.47790193 101.1721357 43.18893599 98.30078125 45.17578125 C94.01838591 49.35835385 90.40542121 54.17454052 86.66015625 58.83203125 C82.98655595 63.29028404 78.98457477 67.44906861 75.02441406 71.65112305 C71.4832708 75.40864809 68.00647527 79.20028943 64.63671875 83.11328125 C62.62126228 85.43658787 60.56151538 87.71748465 58.5 90 C55.81016569 92.98062721 53.13689636 95.97245233 50.5 99 C47.10746907 102.89512811 43.64805799 106.72782763 40.1875 110.5625 C38.27445851 112.69417481 36.38112388 114.8401911 34.5 117 C31.10746907 120.89512811 27.64805799 124.72782763 24.1875 128.5625 C22.27445851 130.69417481 20.38112388 132.8401911 18.5 135 C15.10746907 138.89512811 11.64805799 142.72782763 8.1875 146.5625 C6.27445851 148.69417481 4.38112388 150.8401911 2.5 153 C-0.89253093 156.89512811 -4.35194201 160.72782763 -7.8125 164.5625 C-9.72554149 166.69417481 -11.61887612 168.8401911 -13.5 171 C-16.89253093 174.89512811 -20.35194201 178.72782763 -23.8125 182.5625 C-25.72554149 184.69417481 -27.61887612 186.8401911 -29.5 189 C-32.89253093 192.89512811 -36.35194201 196.72782763 -39.8125 200.5625 C-41.72554149 202.69417481 -43.61887612 204.8401911 -45.5 207 C-48.89253093 210.89512811 -52.35194201 214.72782763 -55.8125 218.5625 C-58.29816968 221.33224621 -60.74610355 224.13267005 -63.1875 226.94140625 C-65.26371868 229.29952531 -67.38264168 231.6162744 -69.5 233.9375 C-73.57784288 238.44900713 -77.34852419 243.13919297 -81 248 C-82.11187045 244.66438864 -81.92906491 244.03857179 -80.86083412 240.84142208 C-80.58128683 239.99021721 -80.30173953 239.13901234 -80.01372111 238.26201338 C-79.53762481 236.85891687 -79.53762481 236.85891687 -79.0519104 235.42747498 C-78.55809877 233.93729193 -78.55809877 233.93729193 -78.05431116 232.41700417 C-76.94271239 229.06992836 -75.81824583 225.72731731 -74.69384766 222.38452148 C-73.89682936 219.99352196 -73.1005984 217.60225986 -72.30509949 215.21075439 C-70.36292265 209.37883738 -68.41244454 203.54975326 -66.45826413 197.72184926 C-64.18455806 190.93966691 -61.92074862 184.15419509 -59.65749411 177.36851931 C-55.61996672 165.26419628 -51.57418351 153.1626493 -47.5234375 141.06274414 C-43.58974783 129.31245045 -39.66067038 117.56062977 -35.73730469 105.80688477 C-35.49566073 105.08296382 -35.25401676 104.35904287 -35.00505026 103.61318492 C-34.03386214 100.70364021 -33.06269118 97.79408977 -32.09154663 94.88453051 C-27.9063272 82.34589148 -23.71768182 69.80839657 -19.52824539 57.271166 C-18.84898433 55.23837821 -18.16978075 53.20557123 -17.49058199 51.17276263 C-14.91240299 43.45678599 -12.33242895 35.74141402 -9.74991798 28.02688599 C-8.9661241 25.68484902 -8.18283395 23.3426434 -7.4000721 21.00026131 C-6.33547431 17.81488152 -5.26903013 14.63012613 -4.20205688 11.44554138 C-3.88912079 10.50791299 -3.5761847 9.57028459 -3.2537657 8.60424322 C-2.96900291 7.75564609 -2.68424012 6.90704897 -2.39084816 6.03273678 C-2.14462703 5.29694611 -1.89840591 4.56115545 -1.64472353 3.8030681 C-1 2 -1 2 0 0 Z " fill="#00BEF8" transform="translate(357,237)"/>
<path d="M0 0 C3.22417499 1.37196174 4.8673217 2.76919734 6.890625 5.61328125 C7.426875 6.35578125 7.963125 7.09828125 8.515625 7.86328125 C9.08796875 8.67152344 9.6603125 9.47976562 10.25 10.3125 C11.50353328 12.04938722 12.7588066 13.78501968 14.015625 15.51953125 C14.66853516 16.42268066 15.32144531 17.32583008 15.99414062 18.25634766 C19.26027763 22.72383155 22.63066483 27.11013719 26 31.5 C31.6546137 38.88557638 37.21471899 46.33196794 42.7109375 53.8359375 C47.07277332 59.77671841 51.52071939 65.64739558 56 71.5 C61.30710039 78.43772693 66.56545762 85.40761203 71.75 92.4375 C72.32234375 93.21222656 72.8946875 93.98695313 73.484375 94.78515625 C74.28875 95.87957031 74.28875 95.87957031 75.109375 96.99609375 C75.80498535 97.94246704 75.80498535 97.94246704 76.51464844 98.90795898 C78.40116439 101.56501934 80.19241664 104.28862496 82 107 C28.54 107 -24.92 107 -80 107 C-75.98703176 100.98054765 -71.97649666 95.26446413 -67.5 89.625 C-62.5990077 83.38897271 -57.80624065 77.09009971 -53.125 70.6875 C-48.15946098 63.89837097 -43.11334754 57.17852028 -38 50.5 C-32.35685594 43.12741814 -26.80544882 35.69613522 -21.31982422 28.20581055 C-14.34437734 18.70483981 -7.17044822 9.35416287 0 0 Z " fill="#98E5FA" transform="translate(255,115)"/>
<path d="M0 0 C3.24931927 -0.17455021 6.49743448 -0.28091753 9.75 -0.375 C11.13058594 -0.45041016 11.13058594 -0.45041016 12.5390625 -0.52734375 C15.15507806 -0.58421365 17.44437576 -0.57031011 20 0 C22.578125 2.9609375 22.578125 2.9609375 24 6 C26.028849 8.028849 30.22066699 7.1852831 33.00805664 7.20532227 C33.84700974 7.21522186 34.68596283 7.22512146 35.55033875 7.23532104 C38.3369154 7.26703185 41.12350913 7.29173114 43.91015625 7.31640625 C45.83687292 7.33696752 47.76358499 7.35796376 49.69029236 7.37937927 C54.771823 7.43468542 59.85339492 7.48405688 64.93499756 7.53222656 C70.1162078 7.58237938 75.2973578 7.63809783 80.47851562 7.69335938 C90.65229233 7.80104537 100.82612125 7.902467 111 8 C110.0675051 9.41472919 109.13282691 10.8280194 108.19726562 12.24072266 C107.67700806 13.0279068 107.15675049 13.81509094 106.62072754 14.62612915 C104.08268417 18.34358753 101.29727596 21.85100822 98.5 25.375 C93.5990077 31.61102729 88.80624065 37.90990029 84.125 44.3125 C79.15946098 51.10162903 74.11334754 57.82147972 69 64.5 C63.35685594 71.87258186 57.80544882 79.30386478 52.31982422 86.79418945 C45.34437734 96.29516019 38.17044822 105.64583713 31 115 C28.47676666 112.67574647 26.75361562 110.21437892 24.953125 107.30078125 C24.36337891 106.35138672 23.77363281 105.40199219 23.16601562 104.42382812 C22.53373047 103.39708984 21.90144531 102.37035156 21.25 101.3125 C19.89073212 99.1210273 18.5313541 96.92962292 17.171875 94.73828125 C16.47771484 93.61631348 15.78355469 92.4943457 15.06835938 91.33837891 C11.89455566 86.21578779 8.69689807 81.10819727 5.5 76 C4.24986811 74.00008244 2.99986855 72.00008215 1.75 70 C1.13125 69.01 0.5125 68.02 -0.125 67 C-2 64 -3.875 61 -5.75 58 C-6.37011963 57.00838867 -6.99023926 56.01677734 -7.62915039 54.99511719 C-8.86742733 53.01271063 -10.10362489 51.02900356 -11.33764648 49.04394531 C-14.26993491 44.33273782 -17.22225317 39.63842554 -20.24905396 34.98718262 C-21.33248889 33.32021148 -22.40848847 31.64841542 -23.484375 29.9765625 C-24.8450429 27.86394654 -26.218314 25.75938229 -27.60546875 23.6640625 C-28.51425781 22.24480469 -28.51425781 22.24480469 -29.44140625 20.796875 C-29.98482666 19.96510742 -30.52824707 19.13333984 -31.08813477 18.27636719 C-32 16 -32 16 -31.25170898 13.83862305 C-30.83864502 13.23187744 -30.42558105 12.62513184 -30 12 C-29.5153125 11.26910156 -29.030625 10.53820312 -28.53125 9.78515625 C-24.50611828 6.94644453 -20.30735688 7.44076144 -15.5 7.4375 C-13.61447466 7.42854567 -11.7289568 7.40688882 -9.84375 7.37109375 C-9.01037109 7.37036865 -8.17699219 7.36964355 -7.31835938 7.36889648 C-4.42153915 6.90795552 -3.0858457 6.0467795 -1 4 C-0.20376178 1.90584196 -0.20376178 1.90584196 0 0 Z " fill="#C6EDFC" transform="translate(130,101)"/>
<path d="M0 0 C14.8038271 -0.21082618 29.60745388 -0.36923259 44.41248035 -0.46630955 C51.28778771 -0.51259543 58.16215901 -0.5756243 65.03686523 -0.67895508 C71.67636095 -0.7787024 78.31514289 -0.83061919 84.95541954 -0.85389519 C87.48358107 -0.87047362 90.01169187 -0.90284867 92.53943825 -0.95157051 C114.83764923 -1.36411497 114.83764923 -1.36411497 121.94702148 4.38574219 C124.21531677 6.79779053 124.21531677 6.79779053 126 9 C127.00973561 9.92055404 128.03284816 10.82704143 129.078125 11.70703125 C129.79484375 12.40183594 130.5115625 13.09664062 131.25 13.8125 C131.99765625 14.52019531 132.7453125 15.22789063 133.515625 15.95703125 C135 18 135 18 134.73876953 19.8671875 C133.93858609 22.1773007 132.92674532 24.07452345 131.6640625 26.16796875 C131.18283936 26.96944336 130.70161621 27.77091797 130.20581055 28.59667969 C129.68414307 29.45165039 129.16247559 30.30662109 128.625 31.1875 C128.08335205 32.08243164 127.5417041 32.97736328 126.98364258 33.89941406 C123.21113055 40.09950816 119.32421515 46.21626978 115.35351562 52.29077148 C111.3678981 58.39674316 107.48620416 64.56470933 103.625 70.75 C102.99456787 71.75925537 102.36413574 72.76851074 101.71459961 73.80834961 C98.54357749 78.89341577 95.38911833 83.98803201 92.2578125 89.09765625 C91.66661621 90.06026367 91.07541992 91.02287109 90.46630859 92.01464844 C89.34827979 93.83721032 88.23383607 95.66197784 87.12353516 97.48925781 C86.6238623 98.30362305 86.12418945 99.11798828 85.609375 99.95703125 C85.17592773 100.66835205 84.74248047 101.37967285 84.29589844 102.11254883 C83.01721583 103.97492548 81.648409 105.46206692 80 107 C72.30471099 97.22093843 64.74069593 87.36492463 57.39404297 77.32104492 C52.99994023 71.32559812 48.51876093 65.40193338 44 59.5 C38.35205793 52.12114969 32.79420676 44.68475947 27.30664062 37.18603516 C22.13955377 30.14389084 16.84344406 23.20315704 11.50390625 16.29101562 C10.55837891 15.0602832 10.55837891 15.0602832 9.59375 13.8046875 C8.76907227 12.73710205 8.76907227 12.73710205 7.92773438 11.64794922 C6.17910925 9.24602571 4.52323684 6.80877631 2.8795166 4.33450317 C2.34003639 3.52308428 1.80055618 2.71166538 1.24472809 1.87565804 C0.83396782 1.25669088 0.42320755 0.63772373 0 0 Z " fill="#C7EDFC" transform="translate(271,109)"/>
<path d="M0 0 C29.7 0 59.4 0 90 0 C86.23304106 5.02261192 82.79030315 9.48379808 78.5625 14 C74.89058473 17.94913435 71.27521703 21.93384064 67.7421875 26.0078125 C65.68499601 28.36020635 63.59403085 30.68034966 61.5 33 C58.81016569 35.98062721 56.13689636 38.97245233 53.5 42 C50.10625985 45.89651647 46.64569997 49.73064945 43.18359375 53.56640625 C41.29151315 55.67511146 39.42094242 57.79919801 37.5625 59.9375 C33.91062947 64.13164365 30.15733816 68.23094292 26.41015625 72.33984375 C23.83006864 75.18755795 21.29798144 78.07244018 18.77734375 80.97265625 C16.70640513 83.33489173 14.60487152 85.66795853 12.5 88 C9.81016569 90.98062721 7.13689636 93.97245233 4.5 97 C1.10746907 100.89512811 -2.35194201 104.72782763 -5.8125 108.5625 C-7.72554149 110.69417481 -9.61887612 112.8401911 -11.5 115 C-14.89253093 118.89512811 -18.35194201 122.72782763 -21.8125 126.5625 C-23.72554149 128.69417481 -25.61887612 130.8401911 -27.5 133 C-30.88707153 136.88885991 -34.34022229 140.71596039 -37.796875 144.54296875 C-39.80370265 146.78107973 -41.78176809 149.04047577 -43.75 151.3125 C-46.38615903 154.34193217 -49.11743212 157.20478266 -52 160 C-51.46735462 152.06394503 -48.83628006 144.8333476 -46.3125 137.35400391 C-45.82073047 135.87846835 -45.32961839 134.40271353 -44.83911133 132.92675781 C-43.51119962 128.93733712 -42.17404406 124.95107135 -40.83508301 120.96534777 C-39.434322 116.79068091 -38.0418676 112.61324491 -36.6484375 108.43612671 C-34.30963258 101.42890107 -31.96534511 94.42353035 -29.6171875 87.41943359 C-26.30291329 77.53354658 -22.999054 67.64420165 -19.69702148 57.75422025 C-17.41021115 50.90623248 -15.12093078 44.05907014 -12.83117676 37.21206617 C-12.2756888 35.5509666 -11.72026921 33.88984416 -11.16491699 32.22869921 C-9.58343508 27.49853595 -8.00041978 22.76889171 -6.41488647 18.04008484 C-5.93425163 16.60591361 -5.45411946 15.17157381 -4.97451782 13.73705673 C-4.32164944 11.78465121 -3.66694179 9.83287244 -3.01171875 7.8812561 C-2.64522217 6.78733866 -2.27872559 5.69342121 -1.90112305 4.56635475 C-1 2 -1 2 0 0 Z " fill="#00CEF9" transform="translate(357,237)"/>
<path d="M0 0 C3.85975386 1.28658462 4.30028026 2.66804379 6.37109375 6.1171875 C7.02150635 7.1892041 7.67191895 8.2612207 8.34204102 9.36572266 C9.04053005 10.53548016 9.73901631 11.70523931 10.4375 12.875 C11.52596174 14.67533605 12.61755418 16.47375059 13.70915222 18.27218628 C14.44066089 19.47804414 15.1711371 20.68452891 15.90058899 21.89163208 C18.89342202 26.84245957 21.95713802 31.74422651 25.0625 36.625 C30.16912667 44.67109328 35.2214422 52.75014536 40.26025391 60.83886719 C43.49852453 66.02845701 46.76035147 71.20093742 50.06640625 76.34765625 C50.71625488 77.36045654 51.36610352 78.37325684 52.03564453 79.41674805 C53.28133925 81.35437101 54.53087483 83.28953131 55.78466797 85.22192383 C56.33912598 86.08454834 56.89358398 86.94717285 57.46484375 87.8359375 C58.20142212 88.97361572 58.20142212 88.97361572 58.95288086 90.13427734 C60 92 60 92 60 94 C17.1 94 -25.8 94 -70 94 C-68.8747648 87.24858881 -68.8747648 87.24858881 -66.69921875 83.70703125 C-66.22315186 82.92231445 -65.74708496 82.13759766 -65.2565918 81.32910156 C-64.7387915 80.49862305 -64.22099121 79.66814453 -63.6875 78.8125 C-63.14843018 77.93174805 -62.60936035 77.05099609 -62.05395508 76.14355469 C-60.38172353 73.4211024 -58.69419853 70.70882857 -57 68 C-56.505 67.20835449 -56.01 66.41670898 -55.5 65.60107422 C-53.08062491 61.74272978 -50.6457297 57.89445392 -48.203125 54.05078125 C-44.58964936 48.36193739 -41.01117241 42.65140912 -37.4375 36.9375 C-36.80650391 35.93041992 -36.17550781 34.92333984 -35.52539062 33.88574219 C-32.53569053 29.1037711 -29.57155797 24.30982294 -26.671875 19.47265625 C-26.16470947 18.62904541 -25.65754395 17.78543457 -25.13500977 16.91625977 C-24.19145234 15.34122387 -23.25411894 13.76243743 -22.32397461 12.17944336 C-21.26955051 10.41973539 -20.14239536 8.70391172 -19 7 C-18.34 7 -17.68 7 -17 7 C-16.5875 7.495 -16.175 7.99 -15.75 8.5 C-14.0041372 10.26554171 -14.0041372 10.26554171 -11.0625 10.4375 C-7.24238303 9.891769 -6.36609628 8.99705529 -4 6 C-2.63178949 4.02369593 -1.29048808 2.02790984 0 0 Z " fill="#98E4FA" transform="translate(86,128)"/>
<path d="M0 0 C3.09341823 2.88292687 5.28329671 5.79672188 7.46875 9.41015625 C8.11593994 10.47250488 8.76312988 11.53485352 9.42993164 12.62939453 C9.93606491 13.46884613 9.93606491 13.46884613 10.4524231 14.32525635 C11.87730565 16.68820283 13.31461768 19.04349546 14.7514801 21.39916992 C15.47703518 22.58875188 16.2020008 23.77869356 16.92637634 24.96899414 C19.9213891 29.88682594 22.97501375 34.76486067 26.0625 39.625 C27.0131847 41.12489615 27.96370243 42.62489814 28.9140625 44.125 C29.40165039 44.89457031 29.88923828 45.66414063 30.39160156 46.45703125 C33.58494641 51.50588977 36.76332555 56.5640731 39.9375 61.625 C40.87831421 63.11894287 40.87831421 63.11894287 41.83813477 64.64306641 C44.59732365 69.04752052 47.32944317 73.46729677 49.94140625 77.9609375 C50.34174072 78.64720215 50.7420752 79.3334668 51.15454102 80.04052734 C52 82 52 82 52 86 C9.1 86 -33.8 86 -78 86 C-76.64388535 82.60971337 -75.60748694 80.15466853 -73.70703125 77.19921875 C-73.24965576 76.4822583 -72.79228027 75.76529785 -72.32104492 75.02661133 C-71.8232251 74.25470459 -71.32540527 73.48279785 -70.8125 72.6875 C-69.72072773 70.97696217 -68.62961253 69.26600483 -67.5390625 67.5546875 C-66.96188477 66.65073242 -66.38470703 65.74677734 -65.79003906 64.81542969 C-62.72762938 59.9987755 -59.7086821 55.15507973 -56.6875 50.3125 C-56.06472168 49.31557129 -55.44194336 48.31864258 -54.80029297 47.29150391 C-51.50383925 42.01431221 -48.21142263 36.7346241 -44.921875 31.453125 C-44.25454346 30.38280029 -43.58721191 29.31247559 -42.8996582 28.2097168 C-41.6313846 26.17546085 -40.36421752 24.14051444 -39.09838867 22.10473633 C-37.40926084 19.39645682 -35.70885058 16.69587216 -34 14 C-33.44070801 13.11296387 -32.88141602 12.22592773 -32.30517578 11.31201172 C-31.77263184 10.48588379 -31.24008789 9.65975586 -30.69140625 8.80859375 C-30.22033447 8.07310303 -29.7492627 7.3376123 -29.26391602 6.57983398 C-28.63827759 5.79781616 -28.63827759 5.79781616 -28 5 C-27.34 5 -26.68 5 -26 5 C-24.94104104 6.64270642 -23.92752526 8.31485062 -22.9375 10 C-20.49289346 13.84058871 -20.49289346 13.84058871 -16.5390625 15.6640625 C-14.28380794 15.62849066 -12.20811578 15.45063587 -10 15 C-9.731875 14.43539062 -9.46375 13.87078125 -9.1875 13.2890625 C-7.93088083 10.8667637 -6.51691203 8.64278348 -5 6.375 C-4.484375 5.59898437 -3.96875 4.82296875 -3.4375 4.0234375 C-2 2 -2 2 0 0 Z " fill="#98E4FA" transform="translate(444,136)"/>
<path d="M0 0 C2.52129427 1.93465649 4.17462962 4.42057233 6 7 C12.80601217 15.95375161 20.08748956 23.20150798 29.37109375 29.578125 C31.35521967 31.31007185 32.18425827 32.48591074 33 35 C32.9765625 37.96875 32.9765625 37.96875 32 41 C29.5234375 43.34375 29.5234375 43.34375 26.375 45.5 C25.27121928 46.28386781 24.16834902 47.06901929 23.06640625 47.85546875 C22.05449219 48.56316406 21.04257813 49.27085938 20 50 C14.23585733 54.21523677 10.35197566 59.28973811 6.2109375 65.09765625 C0.41581123 72.70503933 0.41581123 72.70503933 -4 73.625 C-9.69048813 72.43948164 -12.31940006 67.60265842 -15.75 63.25 C-21.9717069 55.40878513 -28.51524866 48.96195157 -36.93359375 43.5078125 C-39 42 -39 42 -41 39 C-40.86456714 35.27559647 -40.75376275 32.86946448 -38.26953125 30.00390625 C-35.89316332 27.90566744 -33.43545616 26.15391687 -30.8125 24.375 C-22.60578799 18.47710963 -16.47981067 11.28778425 -11.19140625 2.71484375 C-8.59815009 -1.01774463 -4.12429336 -0.91478687 0 0 Z " fill="#010100" transform="translate(149,0)"/>
<path d="M0 0 C0.66 0 1.32 0 2 0 C3.24814331 1.40678023 4.4230839 2.87879704 5.5625 4.375 C13.61451626 14.64276893 22.07468725 23.71645817 33 31 C31.53888435 34.58208999 29.71309573 36.2214051 26.625 38.5 C16.81757621 46.12484682 8.46109659 55.08113041 1 65 C-2.30540913 61.79231601 -5.24382359 58.51375374 -8.0625 54.875 C-14.89960077 46.42849821 -22.91441861 38.9882241 -32 33 C-28.63305475 29.57511497 -25.16862061 26.28780539 -21.63208008 23.03881836 C-14.42534066 16.40934194 -7.63818882 9.69134875 -1.625 1.9375 C-1.08875 1.298125 -0.5525 0.65875 0 0 Z " fill="#FBE159" transform="translate(428,66)"/>
<path d="M0 0 C3.09341823 2.88292687 5.28329671 5.79672188 7.46875 9.41015625 C8.11593994 10.47250488 8.76312988 11.53485352 9.42993164 12.62939453 C9.76735382 13.18902893 10.104776 13.74866333 10.4524231 14.32525635 C11.87730565 16.68820283 13.31461768 19.04349546 14.7514801 21.39916992 C15.47703518 22.58875188 16.2020008 23.77869356 16.92637634 24.96899414 C19.9213891 29.88682594 22.97501375 34.76486067 26.0625 39.625 C27.0131847 41.12489615 27.96370243 42.62489814 28.9140625 44.125 C29.40165039 44.89457031 29.88923828 45.66414063 30.39160156 46.45703125 C33.58494641 51.50588977 36.76332555 56.5640731 39.9375 61.625 C40.56470947 62.62096191 41.19191895 63.61692383 41.83813477 64.64306641 C44.59732365 69.04752052 47.32944317 73.46729677 49.94140625 77.9609375 C50.34174072 78.64720215 50.7420752 79.3334668 51.15454102 80.04052734 C52 82 52 82 52 86 C40.12 86 28.24 86 16 86 C16.99 83.69 17.98 81.38 19 79 C20.65238446 67.0142258 18.47409359 58.27420922 12 48 C11.47438477 47.15179688 10.94876953 46.30359375 10.40722656 45.4296875 C7.48172704 40.7226653 4.51534643 36.04449503 1.5 31.39453125 C0.93152344 30.51619629 0.36304688 29.63786133 -0.22265625 28.73291016 C-1.47267858 26.81082912 -2.73128046 24.89431396 -3.99609375 22.98193359 C-4.63675781 22.0017627 -5.27742188 21.0215918 -5.9375 20.01171875 C-6.52402344 19.12315186 -7.11054688 18.23458496 -7.71484375 17.3190918 C-9 15 -9 15 -9 12 C-7.76121158 10.07550409 -6.43651011 8.20540363 -5.0625 6.375 C-4.33160156 5.39273438 -3.60070312 4.41046875 -2.84765625 3.3984375 C-1 1 -1 1 0 0 Z " fill="#61D8F8" transform="translate(444,136)"/>
<path d="M0 0 C3.62546791 1.49236263 5.54704422 3.52847092 8.0625 6.5 C12.99926255 12.14436518 18.37373488 17.0572998 24 22 C20.63758004 25.42322321 17.16743624 28.64731484 13.5625 31.8125 C9.50758958 35.45754751 6.14115819 39.06698504 3.12109375 43.6015625 C2.75113281 44.06304687 2.38117188 44.52453125 2 45 C1.34 45 0.68 45 0 45 C-1.38780817 43.39983325 -2.70965704 41.74225003 -4 40.0625 C-7.917603 35.14964834 -12.08622452 30.97633946 -16.8359375 26.875 C-18.64064554 25.31135404 -20.33972972 23.71382739 -22 22 C-21.16597656 21.24976562 -20.33195312 20.49953125 -19.47265625 19.7265625 C-12.56502644 13.46167031 -6.07252896 7.09246277 0 0 Z " fill="#F9E058" transform="translate(74,73)"/>
<path d="M0 0 C0.66 0.33 1.32 0.66 2 1 C-4.6 20.8 -11.2 40.6 -18 61 C-18.66 61 -19.32 61 -20 61 C-21.3376248 57.23455193 -22.65533721 53.46277985 -23.95507812 49.68408203 C-24.39986541 48.39996948 -24.85002429 47.11770433 -25.30566406 45.83740234 C-25.96010922 43.99552504 -26.59362066 42.14625194 -27.2265625 40.296875 C-27.61408691 39.18666992 -28.00161133 38.07646484 -28.40087891 36.93261719 C-29 34 -29 34 -28.25805664 31.77734375 C-26.33461762 29.05996822 -24.09601974 26.66212561 -21.8125 24.25 C-20.81051284 23.17511738 -19.80920995 22.09959648 -18.80859375 21.0234375 C-18.0813208 20.24371582 -18.0813208 20.24371582 -17.33935547 19.44824219 C-15.09443143 17.02081065 -12.93531516 14.52120288 -10.76953125 12.0234375 C-7.22749258 7.97315928 -3.60747906 3.99194962 0 0 Z " fill="#01CDF8" transform="translate(275,431)"/>
<path d="M0 0 C0.66 0 1.32 0 2 0 C3.48046875 1.5390625 3.48046875 1.5390625 5.1875 3.625 C8.50557496 7.54255909 12.0266051 10.75641233 16 14 C14.51775856 17.58942793 12.51479459 19.51793952 9.5625 22 C6.62162504 24.48060623 4.19779152 26.83404952 2 30 C-1.54045195 28.6887215 -3.26288394 26.58170037 -5.5625 23.6640625 C-8.06425545 20.76800864 -11.03698265 18.40798528 -14 16 C-12.87314977 12.61944932 -11.94615375 11.8920618 -9.25 9.6875 C-6.60274661 7.4577346 -4.27343584 5.27699079 -2.125 2.5625 C-1.42375 1.716875 -0.7225 0.87125 0 0 Z " fill="#F8DF58" transform="translate(144,21)"/>
<path d="M0 0 C1.9451 2.91765 2.45276317 4.62537285 3 8 C1.02 6.35 -0.96 4.7 -3 3 C-2.01 2.67 -1.02 2.34 0 2 C0 1.34 0 0.68 0 0 Z " fill="#009BC8" transform="translate(234,476)"/>
</svg>
